<svg width="161" height="146" viewBox="0 0 161 146" fill="none" xmlns="http://www.w3.org/2000/svg">
<ellipse cx="83.6717" cy="121.734" rx="76.6834" ry="19.1709" fill="#CDD3D9"/>
<circle cx="111.006" cy="51.7917" r="25.9162" fill="#CDD3D9"/>
<circle cx="145.91" cy="75.2268" r="12.4256" fill="#CDD3D9"/>
<circle cx="154.433" cy="57.476" r="3.90518" fill="#CDD3D9"/>
<rect x="31.1367" y="101.458" width="39.7618" height="97.9844" rx="4.26019" transform="rotate(-141.542 31.1367 101.458)" fill="#CDD3D9"/>
<path d="M108.375 44.7855L109.543 44.1458L108.375 44.7855C108.66 45.3051 109.087 45.7324 109.607 46.0171L114.759 48.8403C114.876 48.904 114.957 49.0165 114.982 49.1469L116.075 54.9197C116.185 55.5018 116.459 56.0403 116.866 56.4716L120.894 60.7489C120.985 60.8455 121.027 60.9777 121.011 61.1093L120.266 66.9373C120.191 67.525 120.286 68.1219 120.539 68.6576L123.048 73.9702C123.104 74.0902 123.104 74.2292 123.048 74.3492L120.539 79.6618C120.286 80.1976 120.191 80.7945 120.266 81.3821L121.011 87.2101C121.027 87.3417 120.985 87.474 120.894 87.5706L116.866 91.8478C116.459 92.2791 116.185 92.8176 116.075 93.3997L117.383 93.6473L116.075 93.3997L114.982 99.1725C114.957 99.3029 114.876 99.4154 114.759 99.4791L109.607 102.302C109.087 102.587 108.66 103.014 108.375 103.534L105.552 108.687C105.488 108.803 105.376 108.885 105.245 108.909L99.4725 110.002C98.8903 110.112 98.3519 110.387 97.9206 110.793L93.6433 114.821C93.5467 114.912 93.4145 114.955 93.2828 114.938L87.4549 114.193C86.8672 114.118 86.2703 114.213 85.7346 114.466L80.422 116.975C80.302 117.032 80.1629 117.032 80.0429 116.975L74.7303 114.466C74.1946 114.213 73.5977 114.118 73.01 114.193L67.1821 114.938C67.0505 114.955 66.9182 114.912 66.8216 114.821L62.5444 110.793C62.1131 110.387 61.5746 110.112 60.9925 110.002L55.2197 108.909C55.0893 108.885 54.9768 108.803 54.913 108.687L52.0898 103.534C51.8052 103.014 51.3778 102.587 50.8583 102.302L50.2185 103.47L50.8582 102.302L45.7057 99.4791C45.5893 99.4154 45.5076 99.3029 45.4829 99.1725L44.3901 93.3997C44.2799 92.8176 44.0055 92.2791 43.5994 91.8478L39.5714 87.5706C39.4804 87.474 39.4374 87.3417 39.4543 87.2101L40.1989 81.3821C40.274 80.7945 40.1794 80.1976 39.9264 79.6618L37.4173 74.3492L36.2135 74.9178L37.4173 74.3492C37.3606 74.2292 37.3606 74.0902 37.4173 73.9702L36.2135 73.4016L37.4173 73.9702L39.9264 68.6576C40.1794 68.1219 40.274 67.525 40.1989 66.9373L39.4543 61.1093C39.4374 60.9777 39.4804 60.8455 39.5714 60.7489L43.5994 56.4716C44.0055 56.0403 44.2799 55.5018 44.3901 54.9197L45.4829 49.1469C45.5076 49.0165 45.5893 48.904 45.7057 48.8403L45.0659 47.6727L45.7057 48.8403L50.8582 46.0171C51.3778 45.7324 51.8052 45.3051 52.0898 44.7855L54.913 39.6329L53.7455 38.9932L54.913 39.6329C54.9768 39.5165 55.0893 39.4348 55.2197 39.4101L60.9925 38.3174C61.5746 38.2072 62.1131 37.9328 62.5444 37.5266L66.8216 33.4986C66.9182 33.4077 67.0505 33.3647 67.1821 33.3815L73.01 34.1261C73.5977 34.2012 74.1946 34.1067 74.7303 33.8536L80.0429 31.3445L79.4744 30.1407L80.043 31.3445C80.1629 31.2879 80.302 31.2879 80.422 31.3445L80.9905 30.1407L80.422 31.3445L85.7346 33.8536C86.2703 34.1067 86.8672 34.2012 87.4549 34.1261L93.2828 33.3815C93.4145 33.3647 93.5467 33.4077 93.6433 33.4986L97.9206 37.5266C98.3519 37.9328 98.8903 38.2072 99.4725 38.3174L105.245 39.4101C105.376 39.4348 105.488 39.5165 105.552 39.6329L108.375 44.7855Z" fill="#FFC857" stroke="#203D5C" stroke-width="2.66262"/>
<circle cx="80.2321" cy="74.1618" r="34.1703" fill="#AFB9C4" stroke="#203D5C" stroke-width="2.66262"/>
<mask id="path-8-inside-1_2508_32431" fill="white">
<path fill-rule="evenodd" clip-rule="evenodd" d="M104.807 65.0884C105.488 64.3832 105.468 63.2595 104.763 62.5785L97.7403 55.7966C97.035 55.1156 95.9113 55.1352 95.2303 55.8404L76.1177 75.6321L67.8179 67.6171C67.1127 66.9361 65.9889 66.9557 65.3079 67.6609L58.526 74.6838C57.845 75.389 57.8646 76.5127 58.5698 77.1937L68.1389 86.4345C68.1414 86.4369 68.1439 86.4394 68.1465 86.4418L75.1693 93.2237C75.5219 93.5642 75.9792 93.7296 76.4334 93.7217C76.8876 93.7137 77.3388 93.5325 77.6793 93.1799L104.807 65.0884Z"/>
</mask>
<path fill-rule="evenodd" clip-rule="evenodd" d="M104.807 65.0884C105.488 64.3832 105.468 63.2595 104.763 62.5785L97.7403 55.7966C97.035 55.1156 95.9113 55.1352 95.2303 55.8404L76.1177 75.6321L67.8179 67.6171C67.1127 66.9361 65.9889 66.9557 65.3079 67.6609L58.526 74.6838C57.845 75.389 57.8646 76.5127 58.5698 77.1937L68.1389 86.4345C68.1414 86.4369 68.1439 86.4394 68.1465 86.4418L75.1693 93.2237C75.5219 93.5642 75.9792 93.7296 76.4334 93.7217C76.8876 93.7137 77.3388 93.5325 77.6793 93.1799L104.807 65.0884Z" fill="#FFC857"/>
<path d="M104.763 62.5785L106.613 60.6631L104.763 62.5785ZM97.7403 55.7966L95.8906 57.7119L97.7403 55.7966ZM76.1177 75.6321L74.2681 77.5474L76.1834 79.397L78.033 77.4817L76.1177 75.6321ZM67.8179 67.6171L69.6675 65.7018L67.8179 67.6171ZM68.1389 86.4345L69.9989 84.5293L69.9937 84.5242L69.9885 84.5192L68.1389 86.4345ZM68.1465 86.4418L69.9961 84.5265L68.1465 86.4418ZM75.1693 93.2237L73.3197 95.1391L75.1693 93.2237ZM102.914 64.4938C102.561 64.1533 102.551 63.5914 102.892 63.2388L106.722 66.938C108.425 65.175 108.376 62.3657 106.613 60.6631L102.914 64.4938ZM95.8906 57.7119L102.914 64.4938L106.613 60.6631L99.5899 53.8812L95.8906 57.7119ZM97.1456 57.69C96.8051 58.0426 96.2432 58.0524 95.8906 57.7119L99.5899 53.8812C97.8268 52.1787 95.0175 52.2278 93.315 53.9908L97.1456 57.69ZM78.033 77.4817L97.1456 57.69L93.315 53.9908L74.2023 73.7825L78.033 77.4817ZM65.9683 69.5324L74.2681 77.5474L77.9673 73.7168L69.6675 65.7018L65.9683 69.5324ZM67.2233 69.5105C66.8828 69.8631 66.3209 69.8729 65.9683 69.5324L69.6675 65.7018C67.9045 63.9993 65.0951 64.0483 63.3926 65.8113L67.2233 69.5105ZM60.4414 76.5334L67.2233 69.5105L63.3926 65.8113L56.6107 72.8342L60.4414 76.5334ZM60.4195 75.2784C60.7721 75.6189 60.7819 76.1808 60.4414 76.5334L56.6107 72.8342C54.9082 74.5972 54.9572 77.4065 56.7202 79.1091L60.4195 75.2784ZM69.9885 84.5192L60.4195 75.2784L56.7202 79.1091L66.2893 88.3498L69.9885 84.5192ZM69.9961 84.5265C69.9977 84.528 69.9987 84.529 69.9989 84.5293L66.2789 88.3397C66.2842 88.3448 66.2902 88.3507 66.2969 88.3571L69.9961 84.5265ZM77.019 91.3084L69.9961 84.5265L66.2969 88.3571L73.3197 95.1391L77.019 91.3084ZM76.3869 91.0594C76.6099 91.0555 76.8432 91.1387 77.019 91.3084L73.3197 95.1391C74.2007 95.9898 75.3484 96.4036 76.4799 96.3839L76.3869 91.0594ZM75.764 91.3303C75.9337 91.1545 76.1639 91.0633 76.3869 91.0594L76.4799 96.3839C77.6113 96.3641 78.7439 95.9105 79.5946 95.0295L75.764 91.3303ZM102.892 63.2388L75.764 91.3303L79.5946 95.0295L106.722 66.938L102.892 63.2388Z" fill="#203D5C" mask="url(#path-8-inside-1_2508_32431)"/>
</svg>
