<svg width="162" height="146" viewBox="0 0 162 146" fill="none" xmlns="http://www.w3.org/2000/svg">
<ellipse cx="84.3788" cy="121.734" rx="76.6834" ry="19.1709" fill="#CDD3D9"/>
<circle cx="111.713" cy="51.7917" r="25.9162" fill="#CDD3D9"/>
<circle cx="146.617" cy="75.2268" r="12.4256" fill="#CDD3D9"/>
<circle cx="155.14" cy="57.476" r="3.90518" fill="#CDD3D9"/>
<rect x="31.8438" y="101.458" width="39.7618" height="97.9844" rx="4.26019" transform="rotate(-141.542 31.8438 101.458)" fill="#CDD3D9"/>
<path d="M76.7219 120.972L31.9316 99.053C31.7794 98.9786 31.6829 98.8239 31.6829 98.6544V50.276L76.535 28.3271C76.6569 28.2674 76.7994 28.2668 76.9218 28.3255L122.731 50.2757L121.782 98.6526C121.779 98.8189 121.683 98.9694 121.534 99.0425L76.7219 120.972Z" fill="#AFB9C4" stroke="#203D5C" stroke-width="2.66262"/>
<path d="M45.4954 78.9866V57.4488C45.4954 57.2807 45.5903 57.127 45.7407 57.0519L69.5737 45.1354C69.7047 45.0698 69.8596 45.0732 69.9876 45.1444L70.6297 43.9886L69.9876 45.1444L84.0995 52.9843C84.4057 53.1544 84.4034 53.5956 84.0954 53.7624L64.1499 64.5662C63.1865 65.088 62.5693 66.0787 62.5255 67.1735L61.7863 85.6533C61.7694 86.0757 61.2275 86.2375 60.9818 85.8935L55.048 77.5862C54.1297 76.3005 52.3927 75.909 51.0116 76.6762L46.1547 79.3745C45.8589 79.5389 45.4954 79.325 45.4954 78.9866Z" fill="#FFC857" stroke="#203D5C" stroke-width="2.66262"/>
<path d="M90.5312 97.7887L98.4241 93.8423M90.5312 106.668L102.37 100.749" stroke="#203D5C" stroke-width="2.66262" stroke-linejoin="round"/>
<path d="M112.589 113.349L113.055 112.102C105.61 109.315 92.4971 98.9241 95.6321 77.3422C95.6531 77.1973 95.7635 77.059 95.9193 77.0068C105.579 73.7659 110.897 71.6759 113.025 70.7379C113.186 70.6667 113.344 70.6718 113.462 70.7215L130.535 77.9099C130.677 77.9698 130.77 78.1003 130.787 78.233C133.196 97.6063 120.515 108.66 113.272 112.092C113.2 112.126 113.126 112.128 113.055 112.102L112.589 113.349Z" fill="#FFC857" stroke="#203D5C" stroke-width="2.66262"/>
<path d="M106.32 89.8965L112.24 97.7893L123.093 82.9902" stroke="#203D5C" stroke-width="2.66262" stroke-linecap="round" stroke-linejoin="round"/>
</svg>
